<svg xmlns="http://www.w3.org/2000/svg" xmlns:xlink="http://www.w3.org/1999/xlink" xmlns:lucid="lucid" width="760" height="240"><g transform="translate(-40 -40)" lucid:page-tab-id="0_0"><path d="M460 65c0-2.76 2.24-5 5-5h110c2.76 0 5 2.24 5 5v50c0 2.76-2.24 5-5 5H465c-2.76 0-5-2.24-5-5z" stroke="#000" stroke-width="2" fill="#fff"/><use xlink:href="#a" transform="matrix(1,0,0,1,465,65) translate(28.549999999999997 28.6)"/><path d="M660 205c0-2.76 2.24-5 5-5h110c2.76 0 5 2.24 5 5v50c0 2.76-2.24 5-5 5H665c-2.76 0-5-2.24-5-5z" stroke="#000" stroke-width="2" fill="#fff"/><use xlink:href="#b" transform="matrix(1,0,0,1,665,205) translate(18.200000000000003 28.6)"/><use xlink:href="#c" transform="matrix(1,0,0,1,665,205) translate(59.8 28.6)"/><path d="M660 65c0-2.76 2.24-5 5-5h110c2.76 0 5 2.24 5 5v50c0 2.76-2.24 5-5 5H665c-2.76 0-5-2.24-5-5z" stroke="#000" stroke-width="2" fill="#fff"/><use xlink:href="#d" transform="matrix(1,0,0,1,665,65) translate(10.074999999999996 28.6)"/><use xlink:href="#c" transform="matrix(1,0,0,1,665,65) translate(67.92500000000001 28.6)"/><path d="M460 205c0-2.76 2.24-5 5-5h110c2.76 0 5 2.24 5 5v50c0 2.76-2.24 5-5 5H465c-2.76 0-5-2.24-5-5z" stroke="#000" stroke-width="2" fill="#fff"/><use xlink:href="#e" transform="matrix(1,0,0,1,465,205) translate(16.525 28.6)"/><path d="M260 65c0-2.76 2.24-5 5-5h110c2.76 0 5 2.24 5 5v50c0 2.76-2.24 5-5 5H265c-2.76 0-5-2.24-5-5z" stroke="#000" stroke-width="2" fill="#fff"/><use xlink:href="#f" transform="matrix(1,0,0,1,265,65) translate(37.575 28.6)"/><path d="M60 65c0-2.76 2.24-5 5-5h110c2.76 0 5 2.24 5 5v50c0 2.76-2.24 5-5 5H65c-2.76 0-5-2.24-5-5z" stroke="#000" stroke-width="2" fill="#fff"/><use xlink:href="#g" transform="matrix(1,0,0,1,65,65) translate(26.525 28.6)"/><path d="M181 90h59.76" stroke="#000" stroke-width="2" fill="none"/><path d="M181 91h-1v-2h1zM255.76 90l-14.26 4.64v-9.28z"/><path d="M259 90l-18.5 6V84zm-16.5 3.26L252.53 90l-10.03-3.26z"/><path d="M381 90h59.76" stroke="#000" stroke-width="2" fill="none"/><path d="M381 91h-1v-2h1zM455.76 90l-14.26 4.64v-9.28z"/><path d="M459 90l-18.5 6V84zm-16.5 3.26L452.53 90l-10.03-3.26z"/><path d="M520 139.24v41.52" stroke="#000" stroke-width="2" fill="none"/><path d="M524.64 138.5h-9.28l4.64-14.26z"/><path d="M526 139.5h-12l6-18.5zm-9.26-2h6.52L520 127.47zM520 195.76l-4.64-14.26h9.28z"/><path d="M520 199l-6-18.5h12zm-3.26-16.5l3.26 10.03 3.26-10.03z"/><path d="M599.24 90h41.52" stroke="#000" stroke-width="2" fill="none"/><path d="M598.5 94.64L584.24 90l14.26-4.64z"/><path d="M599.5 96L581 90l18.5-6zm-12.03-6l10.03 3.26v-6.52zM655.76 90l-14.26 4.64v-9.28z"/><path d="M659 90l-18.5 6V84zm-16.5 3.26L652.53 90l-10.03-3.26z"/><path d="M581 230h59.76" stroke="#000" stroke-width="2" fill="none"/><path d="M581 231h-1v-2h1zM655.76 230l-14.26 4.64v-9.28z"/><path d="M659 230l-18.5 6v-12zm-16.5 3.26l10.03-3.26-10.03-3.26z"/><defs><path d="M185-189c-5-48-123-54-124 2 14 75 158 14 163 119 3 78-121 87-175 55-17-10-28-26-33-46l33-7c5 56 141 63 141-1 0-78-155-14-162-118-5-82 145-84 179-34 5 7 8 16 11 25" id="h"/><path d="M100-194c63 0 86 42 84 106H49c0 40 14 67 53 68 26 1 43-12 49-29l28 8c-11 28-37 45-77 45C44 4 14-33 15-96c1-61 26-98 85-98zm52 81c6-60-76-77-97-28-3 7-6 17-6 28h103" id="i"/><path d="M114-163C36-179 61-72 57 0H25l-1-190h30c1 12-1 29 2 39 6-27 23-49 58-41v29" id="j"/><path d="M108 0H70L1-190h34L89-25l56-165h34" id="k"/><g id="a"><use transform="matrix(0.05,0,0,0.05,0,0)" xlink:href="#h"/><use transform="matrix(0.05,0,0,0.05,12,0)" xlink:href="#i"/><use transform="matrix(0.05,0,0,0.05,22,0)" xlink:href="#j"/><use transform="matrix(0.05,0,0,0.05,27.950000000000003,0)" xlink:href="#k"/><use transform="matrix(0.05,0,0,0.05,36.95,0)" xlink:href="#i"/><use transform="matrix(0.05,0,0,0.05,46.95,0)" xlink:href="#j"/></g><path d="M266 0h-40l-56-210L115 0H75L2-248h35L96-30l15-64 43-154h32l59 218 59-218h35" id="l"/><path d="M115-194c53 0 69 39 70 98 0 66-23 100-70 100C84 3 66-7 56-30L54 0H23l1-261h32v101c10-23 28-34 59-34zm-8 174c40 0 45-34 45-75 0-40-5-75-45-74-42 0-51 32-51 76 0 43 10 73 51 73" id="m"/><g id="b"><use transform="matrix(0.05,0,0,0.05,0,0)" xlink:href="#l"/><use transform="matrix(0.05,0,0,0.05,16.599999999999998,0)" xlink:href="#i"/><use transform="matrix(0.05,0,0,0.05,26.599999999999994,0)" xlink:href="#m"/></g><path d="M205 0l-28-72H64L36 0H1l101-248h38L239 0h-34zm-38-99l-47-123c-12 45-31 82-46 123h93" id="n"/><path d="M115-194c55 1 70 41 70 98S169 2 115 4C84 4 66-9 55-30l1 105H24l-1-265h31l2 30c10-21 28-34 59-34zm-8 174c40 0 45-34 45-75s-6-73-45-74c-42 0-51 32-51 76 0 43 10 73 51 73" id="o"/><g id="c"><use transform="matrix(0.05,0,0,0.05,0,0)" xlink:href="#n"/><use transform="matrix(0.05,0,0,0.05,12,0)" xlink:href="#o"/><use transform="matrix(0.05,0,0,0.05,22,0)" xlink:href="#o"/></g><path d="M240 0l2-218c-23 76-54 145-80 218h-23L58-218 59 0H30v-248h44l77 211c21-75 51-140 76-211h43V0h-30" id="p"/><path d="M100-194c62-1 85 37 85 99 1 63-27 99-86 99S16-35 15-95c0-66 28-99 85-99zM99-20c44 1 53-31 53-75 0-43-8-75-51-75s-53 32-53 75 10 74 51 75" id="q"/><path d="M24-231v-30h32v30H24zM24 0v-190h32V0H24" id="r"/><path d="M24 0v-261h32V0H24" id="s"/><g id="d"><use transform="matrix(0.05,0,0,0.05,0,0)" xlink:href="#p"/><use transform="matrix(0.05,0,0,0.05,14.950000000000001,0)" xlink:href="#q"/><use transform="matrix(0.05,0,0,0.05,24.950000000000003,0)" xlink:href="#m"/><use transform="matrix(0.05,0,0,0.05,34.95,0)" xlink:href="#r"/><use transform="matrix(0.05,0,0,0.05,38.900000000000006,0)" xlink:href="#s"/><use transform="matrix(0.05,0,0,0.05,42.85000000000001,0)" xlink:href="#i"/></g><path d="M30-248c118-7 216 8 213 122C240-48 200 0 122 0H30v-248zM63-27c89 8 146-16 146-99s-60-101-146-95v194" id="t"/><path d="M141-36C126-15 110 5 73 4 37 3 15-17 15-53c-1-64 63-63 125-63 3-35-9-54-41-54-24 1-41 7-42 31l-33-3c5-37 33-52 76-52 45 0 72 20 72 64v82c-1 20 7 32 28 27v20c-31 9-61-2-59-35zM48-53c0 20 12 33 32 33 41-3 63-29 60-74-43 2-92-5-92 41" id="u"/><path d="M59-47c-2 24 18 29 38 22v24C64 9 27 4 27-40v-127H5v-23h24l9-43h21v43h35v23H59v120" id="v"/><path d="M135-143c-3-34-86-38-87 0 15 53 115 12 119 90S17 21 10-45l28-5c4 36 97 45 98 0-10-56-113-15-118-90-4-57 82-63 122-42 12 7 21 19 24 35" id="w"/><g id="e"><use transform="matrix(0.05,0,0,0.05,0,0)" xlink:href="#t"/><use transform="matrix(0.05,0,0,0.05,12.950000000000001,0)" xlink:href="#u"/><use transform="matrix(0.05,0,0,0.05,22.950000000000003,0)" xlink:href="#v"/><use transform="matrix(0.05,0,0,0.05,27.950000000000003,0)" xlink:href="#u"/><use transform="matrix(0.05,0,0,0.05,37.95,0)" xlink:href="#m"/><use transform="matrix(0.05,0,0,0.05,47.95,0)" xlink:href="#u"/><use transform="matrix(0.05,0,0,0.05,57.95,0)" xlink:href="#w"/><use transform="matrix(0.05,0,0,0.05,66.95,0)" xlink:href="#i"/></g><path d="M127-220V0H93v-220H8v-28h204v28h-85" id="x"/><path d="M190 0L58-211 59 0H30v-248h39L202-35l-2-213h31V0h-41" id="y"/><g id="f"><use transform="matrix(0.05,0,0,0.05,0,0)" xlink:href="#x"/><use transform="matrix(0.05,0,0,0.05,10.950000000000001,0)" xlink:href="#x"/><use transform="matrix(0.05,0,0,0.05,21.900000000000002,0)" xlink:href="#y"/></g><path d="M117-194c89-4 53 116 60 194h-32v-121c0-31-8-49-39-48C34-167 62-67 57 0H25l-1-190h30c1 10-1 24 2 32 11-22 29-35 61-36" id="z"/><g id="g"><use transform="matrix(0.05,0,0,0.05,0,0)" xlink:href="#h"/><use transform="matrix(0.05,0,0,0.05,12,0)" xlink:href="#i"/><use transform="matrix(0.05,0,0,0.05,22,0)" xlink:href="#z"/><use transform="matrix(0.05,0,0,0.05,32,0)" xlink:href="#w"/><use transform="matrix(0.05,0,0,0.05,41,0)" xlink:href="#q"/><use transform="matrix(0.05,0,0,0.05,51,0)" xlink:href="#j"/></g></defs></g></svg>